<svg width="24" height="18" viewBox="0 0 24 18" fill="none" xmlns="http://www.w3.org/2000/svg">
<path d="M11.9448 11.7512C15.6619 11.7512 18.8358 12.3405 18.8358 14.6987C18.8358 17.0559 15.6822 17.6666 11.9448 17.6666C8.22765 17.6666 5.05374 17.0774 5.05374 14.7202C5.05374 12.362 8.20728 11.7512 11.9448 11.7512ZM17.888 10.3313C19.3091 10.3049 20.8368 10.5001 21.4014 10.6386C22.5974 10.8737 23.3841 11.3538 23.71 12.0513C23.9855 12.6241 23.9855 13.2885 23.71 13.8602C23.2114 14.9422 21.6041 15.2896 20.9794 15.3793C20.8504 15.3988 20.7466 15.2866 20.7602 15.1569C21.0793 12.1587 18.5408 10.7371 17.8841 10.4103C17.856 10.3957 17.8501 10.3732 17.8531 10.3596C17.855 10.3498 17.8666 10.3342 17.888 10.3313ZM6.11271 10.3317C6.13405 10.3346 6.14472 10.3502 6.14666 10.359C6.14957 10.3736 6.14375 10.3951 6.11659 10.4107C5.45892 10.7375 2.92038 12.1591 3.23951 15.1563C3.25309 15.287 3.15027 15.3982 3.02126 15.3797C2.39657 15.2899 0.789245 14.9426 0.290655 13.8606C0.0141991 13.2879 0.0141991 12.6244 0.290655 12.0517C0.616581 11.3541 1.4023 10.8741 2.59833 10.638C3.16385 10.5004 4.69066 10.3053 6.11271 10.3317ZM11.9448 0.333313C14.4755 0.333313 16.5048 2.37244 16.5048 4.9189C16.5048 7.46439 14.4755 9.50547 11.9448 9.50547C9.41398 9.50547 7.3847 7.46439 7.3847 4.9189C7.3847 2.37244 9.41398 0.333313 11.9448 0.333313ZM18.1353 1.09803C20.5798 1.09803 22.4994 3.41132 21.8457 5.98803C21.4043 7.72275 19.8067 8.875 18.0267 8.82817C17.8482 8.82329 17.6726 8.8067 17.5029 8.77743C17.3797 8.75597 17.3176 8.61645 17.3874 8.51303C18.0665 7.5081 18.4535 6.29926 18.4535 5.00164C18.4535 3.64743 18.0306 2.38493 17.2963 1.34975C17.273 1.31756 17.2555 1.2678 17.2788 1.23072C17.2982 1.20048 17.3341 1.18487 17.368 1.17706C17.6154 1.12633 17.8695 1.09803 18.1353 1.09803ZM5.8639 1.09794C6.12969 1.09794 6.38383 1.12623 6.63216 1.17696C6.66514 1.18477 6.702 1.20136 6.7214 1.23063C6.74371 1.2677 6.72722 1.31746 6.70394 1.34966C5.96963 2.38483 5.54671 3.64733 5.54671 5.00154C5.54671 6.29917 5.93374 7.508 6.61276 8.51293C6.6826 8.61635 6.62052 8.75587 6.49733 8.77734C6.3266 8.80758 6.152 8.82319 5.97351 8.82807C4.19353 8.8749 2.59591 7.72265 2.15455 5.98793C1.49978 3.41122 3.41945 1.09794 5.8639 1.09794Z" fill="white" fill-opacity="0.6"/>
</svg>
