<svg width="30" height="31" viewBox="0 0 30 31" fill="none" xmlns="http://www.w3.org/2000/svg">
<path fill-rule="evenodd" clip-rule="evenodd" d="M8.32189 3.00068C9.71814 3.01943 10.7131 4.06568 11.9719 5.38943C12.2831 5.71567 12.6194 6.07192 12.9956 6.44692C14.8194 8.27192 14.3006 9.76067 13.8819 10.9557C13.4269 12.2594 13.0331 13.3844 15.3906 15.7419C17.7481 18.0994 18.8719 17.7057 20.1744 17.2469C21.3706 16.8294 22.8556 16.3069 24.6831 18.1319C25.0544 18.5032 25.4044 18.8357 25.7294 19.1444C27.0581 20.4094 28.1081 21.4082 28.1258 22.8082C28.1394 24.0007 27.4144 25.2182 25.6244 27.0082L24.8319 26.4707L25.5031 27.1244C25.1069 27.5307 24.0531 28.6132 21.9894 28.6257H21.9519C18.8369 28.6257 14.7756 26.1457 9.88064 21.2519C4.96564 16.3382 2.48189 12.2644 2.50053 9.14317C2.51189 7.08068 3.59314 6.02443 3.99939 5.62818L4.03406 5.5903L4.11814 5.50568C5.91189 3.71193 7.14439 2.97443 8.32189 3.00068ZM8.29814 4.87567H8.28814C7.72681 4.87567 6.87434 5.43817 5.68542 6.59304L5.44668 6.8275L5.44939 6.82692C5.44939 6.82692 5.42899 6.85032 5.39422 6.88578L5.31064 6.96942C5.00814 7.26318 4.38189 7.87442 4.37557 9.15317C4.36564 10.9419 5.54189 14.2632 11.2056 19.9257C16.8419 25.5607 20.1581 26.7507 21.9519 26.7507H21.9781C23.2569 26.7432 23.8669 26.1169 24.1606 25.8157C24.2494 25.7244 24.3219 25.6557 24.3731 25.6144C25.6194 24.3607 26.2569 23.4294 26.2507 22.8307C26.2431 22.2207 25.4844 21.5007 24.4356 20.5019C24.1019 20.1857 23.7394 19.8394 23.3569 19.4569C22.3644 18.4682 21.8756 18.6369 20.7944 19.0169C19.3006 19.5407 17.2544 20.2582 14.0656 17.0669C10.8756 13.8782 11.5906 11.8319 12.1119 10.3369C12.4894 9.25692 12.6619 8.76567 11.6706 7.77317C11.2831 7.38567 10.9344 7.01818 10.6131 6.68068C9.62064 5.63818 8.90439 4.88443 8.29814 4.87567ZM19.0583 7.44755C21.6595 7.95255 23.6683 9.96005 24.1745 12.5625C24.2733 13.0725 23.942 13.5638 23.4345 13.6625C23.3733 13.6738 23.3133 13.68 23.2533 13.68C22.8133 13.68 22.422 13.37 22.3345 12.9225C21.9745 11.0725 20.5483 9.6463 18.7008 9.28755C18.192 9.1888 17.8608 8.69755 17.9595 8.1888C18.0583 7.68005 18.5583 7.34755 19.0583 7.44755ZM18.9834 3.0078C24.0809 3.57405 28.0396 7.5278 28.6109 12.624C28.6684 13.139 28.2984 13.6028 27.7846 13.6603C27.7496 13.664 27.7134 13.6665 27.6784 13.6665C27.2071 13.6665 26.8021 13.3128 26.7484 12.834C26.2746 8.61405 22.9971 5.33905 18.7759 4.8703C18.2621 4.8128 17.8909 4.3503 17.9484 3.8353C18.0046 3.32155 18.4634 2.9428 18.9834 3.0078Z" fill="black"/>
</svg>
