<svg width="30" height="30" viewBox="0 0 30 30" fill="none" xmlns="http://www.w3.org/2000/svg">
<path fill-rule="evenodd" clip-rule="evenodd" d="M15.1645 0.833496C18.9952 0.833496 22.5952 2.32283 25.2992 5.02816C30.8885 10.6175 30.8885 19.7108 25.2992 25.3002C22.5592 28.0415 18.8699 29.4922 15.1325 29.4922C13.0952 29.4922 11.0445 29.0615 9.12587 28.1735C8.56053 27.9468 8.0312 27.7335 7.6512 27.7335C7.21387 27.7362 6.62587 27.9388 6.05787 28.1348C4.89253 28.5348 3.44187 29.0335 2.36853 27.9642C1.2992 26.8935 1.79253 25.4468 2.18987 24.2828C2.38587 23.7095 2.5872 23.1175 2.5872 22.6695C2.5872 22.3015 2.40987 21.8322 2.13787 21.1562C-0.359468 15.7628 0.795199 9.26283 5.0312 5.0295C7.7352 2.32416 11.3339 0.833496 15.1645 0.833496ZM15.1659 2.8335C11.8685 2.8335 8.7712 4.11616 6.44453 6.44416C2.7992 10.0868 1.8072 15.6802 3.97387 20.3642C4.28587 21.1362 4.5872 21.8882 4.5872 22.6695C4.5872 23.4495 4.3192 24.2348 4.0832 24.9282C3.88853 25.4988 3.59387 26.3602 3.7832 26.5495C3.96853 26.7415 4.8352 26.4388 5.4072 26.2428C6.09387 26.0082 6.87253 25.7388 7.64453 25.7335C8.41787 25.7335 9.1472 26.0268 9.9192 26.3375C14.6485 28.5242 20.2419 27.5295 23.8859 23.8868C28.6939 19.0762 28.6939 11.2508 23.8859 6.44283C21.5579 4.11483 18.4619 2.8335 15.1659 2.8335ZM20.4284 14.3838C21.1644 14.3838 21.7617 14.9798 21.7617 15.7171C21.7617 16.4544 21.1644 17.0504 20.4284 17.0504C19.6924 17.0504 19.0897 16.4544 19.0897 15.7171C19.0897 14.9798 19.6804 14.3838 20.4164 14.3838H20.4284ZM15.0833 14.3838C15.8193 14.3838 16.4167 14.9798 16.4167 15.7171C16.4167 16.4544 15.8193 17.0504 15.0833 17.0504C14.3473 17.0504 13.7447 16.4544 13.7447 15.7171C13.7447 14.9798 14.334 14.3838 15.0713 14.3838H15.0833ZM9.73773 14.3838C10.4737 14.3838 11.0711 14.9798 11.0711 15.7171C11.0711 16.4544 10.4737 17.0504 9.73773 17.0504C9.00173 17.0504 8.39907 16.4544 8.39907 15.7171C8.39907 14.9798 8.98973 14.3838 9.72573 14.3838H9.73773Z" fill="white"/>
</svg>
