<svg width="22" height="20" viewBox="0 0 22 20" fill="none" xmlns="http://www.w3.org/2000/svg">
<path d="M0.333313 1.99996C0.333313 1.64634 0.473789 1.3072 0.723838 1.05715C0.973886 0.807102 1.31302 0.666626 1.66665 0.666626H20.3333C20.6869 0.666626 21.0261 0.807102 21.2761 1.05715C21.5262 1.3072 21.6666 1.64634 21.6666 1.99996C21.6666 2.35358 21.5262 2.69272 21.2761 2.94277C21.0261 3.19282 20.6869 3.33329 20.3333 3.33329H1.66665C1.31302 3.33329 0.973886 3.19282 0.723838 2.94277C0.473789 2.69272 0.333313 2.35358 0.333313 1.99996ZM0.333313 18C0.333313 17.6463 0.473789 17.3072 0.723838 17.0571C0.973886 16.8071 1.31302 16.6666 1.66665 16.6666H20.3333C20.6869 16.6666 21.0261 16.8071 21.2761 17.0571C21.5262 17.3072 21.6666 17.6463 21.6666 18C21.6666 18.3536 21.5262 18.6927 21.2761 18.9428C21.0261 19.1928 20.6869 19.3333 20.3333 19.3333H1.66665C1.31302 19.3333 0.973886 19.1928 0.723838 18.9428C0.473789 18.6927 0.333313 18.3536 0.333313 18ZM1.66665 8.66663C1.31302 8.66663 0.973886 8.8071 0.723838 9.05715C0.473789 9.3072 0.333313 9.64634 0.333313 9.99996C0.333313 10.3536 0.473789 10.6927 0.723838 10.9428C0.973886 11.1928 1.31302 11.3333 1.66665 11.3333H12.3333C12.6869 11.3333 13.0261 11.1928 13.2761 10.9428C13.5262 10.6927 13.6666 10.3536 13.6666 9.99996C13.6666 9.64634 13.5262 9.3072 13.2761 9.05715C13.0261 8.8071 12.6869 8.66663 12.3333 8.66663H1.66665Z" fill="#3B5DCD"/>
</svg>
