<svg width="20" height="19" viewBox="0 0 20 19" fill="none" xmlns="http://www.w3.org/2000/svg">
<path d="M3.50002 -0.000366211C2.81046 -0.000366211 2.14914 0.273561 1.66155 0.761156C1.17395 1.24875 0.900024 1.91007 0.900024 2.59963V5.19963C0.900024 5.8892 1.17395 6.55052 1.66155 7.03811C2.14914 7.52571 2.81046 7.79963 3.50002 7.79963H6.10002C6.78959 7.79963 7.45091 7.52571 7.9385 7.03811C8.4261 6.55052 8.70002 5.8892 8.70002 5.19963V2.59963C8.70002 1.91007 8.4261 1.24875 7.9385 0.761156C7.45091 0.273561 6.78959 -0.000366211 6.10002 -0.000366211H3.50002ZM3.50002 10.3996C2.81046 10.3996 2.14914 10.6736 1.66155 11.1612C1.17395 11.6488 0.900024 12.3101 0.900024 12.9996V15.5996C0.900024 16.2892 1.17395 16.9505 1.66155 17.4381C2.14914 17.9257 2.81046 18.1996 3.50002 18.1996H6.10002C6.78959 18.1996 7.45091 17.9257 7.9385 17.4381C8.4261 16.9505 8.70002 16.2892 8.70002 15.5996V12.9996C8.70002 12.3101 8.4261 11.6488 7.9385 11.1612C7.45091 10.6736 6.78959 10.3996 6.10002 10.3996H3.50002ZM11.3 2.59963C11.3 1.91007 11.574 1.24875 12.0615 0.761156C12.5491 0.273561 13.2105 -0.000366211 13.9 -0.000366211H16.5C17.1896 -0.000366211 17.8509 0.273561 18.3385 0.761156C18.8261 1.24875 19.1 1.91007 19.1 2.59963V5.19963C19.1 5.8892 18.8261 6.55052 18.3385 7.03811C17.8509 7.52571 17.1896 7.79963 16.5 7.79963H13.9C13.2105 7.79963 12.5491 7.52571 12.0615 7.03811C11.574 6.55052 11.3 5.8892 11.3 5.19963V2.59963ZM11.3 12.9996C11.3 12.3101 11.574 11.6488 12.0615 11.1612C12.5491 10.6736 13.2105 10.3996 13.9 10.3996H16.5C17.1896 10.3996 17.8509 10.6736 18.3385 11.1612C18.8261 11.6488 19.1 12.3101 19.1 12.9996V15.5996C19.1 16.2892 18.8261 16.9505 18.3385 17.4381C17.8509 17.9257 17.1896 18.1996 16.5 18.1996H13.9C13.2105 18.1996 12.5491 17.9257 12.0615 17.4381C11.574 16.9505 11.3 16.2892 11.3 15.5996V12.9996Z" fill="white" fill-opacity="0.6"/>
</svg>
