<svg width="56" height="56" viewBox="0 0 56 56" fill="none" xmlns="http://www.w3.org/2000/svg">
<g clip-path="url(#clip0_355_1320)">
<path d="M21.4002 39.4196L26.8251 33.9911L14.5891 21.7644C12.834 20.0092 12.8303 17.144 14.5983 15.3759C16.361 13.6133 19.2169 13.6133 20.9794 15.3739L21.4002 15.7966L26.8306 10.3699L26.408 9.94738C23.3129 6.85231 18.9686 5.76987 14.9986 6.70028C14.4278 3.20481 11.3957 0.536004 7.73764 0.53418C3.67504 0.53418 0.381596 3.82945 0.38063 7.89205C0.38063 11.3967 2.82993 14.3288 6.10942 15.0701C4.86681 19.2254 5.8824 23.9125 9.16243 27.193L21.4002 39.4196Z" fill="white"/>
<path d="M28.5319 9.95671C31.7994 6.68923 36.4569 5.66055 40.5955 6.87645C41.0904 3.29386 44.1651 0.53418 47.8848 0.53418C51.9473 0.53418 55.2427 3.82762 55.2427 7.89205C55.2427 11.6266 52.4589 14.7124 48.854 15.1869C50.0384 19.3107 49.0061 23.9347 45.759 27.1838L45.3365 27.6081L39.9116 22.1778L40.3305 21.757C42.093 19.9944 42.093 17.1366 40.3324 15.3759C38.5753 13.6207 35.7268 13.6171 33.9568 15.3852L21.7246 27.6081L16.2941 22.1815L28.5319 9.95671Z" fill="white"/>
<path d="M40.3305 34.7436C42.0986 36.5135 42.0949 39.362 40.3398 41.1191C38.5791 42.8798 35.7212 42.8798 33.9568 41.1172L33.5398 40.7003L28.115 46.1307L28.5319 46.5459C31.8365 49.8504 36.5662 50.8605 40.7419 49.5761C41.4221 52.9381 44.3911 55.466 47.9533 55.466C52.0159 55.466 55.3112 52.1745 55.3112 48.1101C55.3112 44.3978 52.5628 41.3268 48.9876 40.8245C49.9588 36.8305 48.8801 32.4398 45.759 29.3187L33.5397 17.0864L28.1093 22.5113L40.3305 34.7436Z" fill="white"/>
<path d="M33.2006 28.8945L38.6254 34.3248L26.408 46.5534C23.2739 49.6894 18.8536 50.7549 14.8411 49.7597C14.0924 53.029 11.164 55.4644 7.66909 55.4662C3.60466 55.4662 0.310253 52.1728 0.311218 48.1103C0.311218 44.6315 2.72608 41.7144 5.97049 40.9489C4.94363 36.9178 6.0075 32.4641 9.16244 29.3097L9.57754 28.8945L15.008 34.3211L14.5891 34.7381C12.8266 36.5007 12.8284 39.3549 14.5909 41.1192C16.359 42.8874 19.2226 42.8837 20.9794 41.1266L33.2006 28.8945Z" fill="white"/>
</g>
<defs>
<clipPath id="clip0_355_1320">
<rect width="55" height="55" fill="white" transform="translate(0.311218 0.5)"/>
</clipPath>
</defs>
</svg>
