<svg width="58" height="58" viewBox="0 0 58 58" fill="none" xmlns="http://www.w3.org/2000/svg">
<path d="M52.3359 37.8984H50.5312V16.2422C50.5253 14.8081 49.953 13.4345 48.9389 12.4204C47.9249 11.4064 46.5513 10.8341 45.1172 10.8281H12.6328C11.1987 10.8341 9.8251 11.4064 8.81105 12.4204C7.797 13.4345 7.22469 14.8081 7.21875 16.2422V37.8984H5.41406C4.93543 37.8984 4.4764 38.0886 4.13796 38.427C3.79951 38.7655 3.60938 39.2245 3.60938 39.7031V43.3125C3.61531 44.7466 4.18763 46.1202 5.20168 47.1343C6.21573 48.1483 7.58937 48.7206 9.02344 48.7266H48.7266C50.1606 48.7206 51.5343 48.1483 52.5483 47.1343C53.5624 46.1202 54.1347 44.7466 54.1406 43.3125V39.7031C54.1406 39.2245 53.9505 38.7655 53.612 38.427C53.2736 38.0886 52.8146 37.8984 52.3359 37.8984ZM10.8281 16.2422C10.8281 15.7636 11.0183 15.3045 11.3567 14.9661C11.6952 14.6276 12.1542 14.4375 12.6328 14.4375H45.1172C45.5958 14.4375 46.0549 14.6276 46.3933 14.9661C46.7317 15.3045 46.9219 15.7636 46.9219 16.2422V37.8984H10.8281V16.2422ZM50.5312 43.3125C50.5312 43.7911 50.3411 44.2502 50.0027 44.5886C49.6642 44.9271 49.2052 45.1172 48.7266 45.1172H9.02344C8.5448 45.1172 8.08578 44.9271 7.74733 44.5886C7.40889 44.2502 7.21875 43.7911 7.21875 43.3125V41.5078H50.5312V43.3125ZM34.2891 19.8516C34.2891 20.3302 34.0989 20.7892 33.7605 21.1277C33.422 21.4661 32.963 21.6562 32.4844 21.6562H25.2656C24.787 21.6562 24.328 21.4661 23.9895 21.1277C23.6511 20.7892 23.4609 20.3302 23.4609 19.8516C23.4609 19.3729 23.6511 18.9139 23.9895 18.5755C24.328 18.237 24.787 18.0469 25.2656 18.0469H32.4844C32.963 18.0469 33.422 18.237 33.7605 18.5755C34.0989 18.9139 34.2891 19.3729 34.2891 19.8516Z" fill="#3B5DCD"/>
</svg>
