<svg width="24" height="24" viewBox="0 0 24 24" fill="none" xmlns="http://www.w3.org/2000/svg">
<path d="M16 19C15.55 19 15.1127 18.9583 14.688 18.875C14.2627 18.7917 13.85 18.675 13.45 18.525C14.4167 17.7083 15.1667 16.7333 15.7 15.6C16.2333 14.4667 16.5 13.2667 16.5 12C16.5 10.7333 16.2333 9.53333 15.7 8.4C15.1667 7.26667 14.4167 6.29167 13.45 5.475C13.85 5.325 14.2627 5.20833 14.688 5.125C15.1127 5.04167 15.55 5 16 5C17.95 5 19.604 5.679 20.962 7.037C22.3207 8.39567 23 10.05 23 12C23 13.95 22.3207 15.604 20.962 16.962C19.604 18.3207 17.95 19 16 19ZM8 19C6.05 19 4.396 18.3207 3.038 16.962C1.67933 15.604 1 13.95 1 12C1 10.05 1.67933 8.39567 3.038 7.037C4.396 5.679 6.05 5 8 5C8.45 5 8.88733 5.04167 9.312 5.125C9.73733 5.20833 10.15 5.325 10.55 5.475C10.2667 5.70833 10 5.96233 9.75 6.237C9.5 6.51233 9.26667 6.8 9.05 7.1C8.88333 7.06667 8.71267 7.04167 8.538 7.025C8.36267 7.00833 8.18333 7 8 7C6.61667 7 5.43767 7.48733 4.463 8.462C3.48767 9.43733 3 10.6167 3 12C3 13.3833 3.48767 14.5623 4.463 15.537C5.43767 16.5123 6.61667 17 8 17C8.18333 17 8.36267 16.9917 8.538 16.975C8.71267 16.9583 8.88333 16.9333 9.05 16.9C9.26667 17.2 9.5 17.4877 9.75 17.763C10 18.0377 10.2667 18.2917 10.55 18.525C10.15 18.675 9.73733 18.7917 9.312 18.875C8.88733 18.9583 8.45 19 8 19ZM12 17.75C11.05 17.1 10.3127 16.2667 9.788 15.25C9.26267 14.2333 9 13.15 9 12C9 10.85 9.26267 9.76667 9.788 8.75C10.3127 7.73333 11.05 6.9 12 6.25C12.95 6.9 13.6877 7.73333 14.213 8.75C14.7377 9.76667 15 10.85 15 12C15 13.15 14.7377 14.2333 14.213 15.25C13.6877 16.2667 12.95 17.1 12 17.75Z" fill="#4ECB71"/>
</svg>
