<svg width="58" height="58" viewBox="0 0 58 58" fill="none" xmlns="http://www.w3.org/2000/svg">
<path d="M39.9531 4.06055H18.2969C16.9825 4.06648 15.7236 4.59126 14.7941 5.5207C13.8647 6.45014 13.3399 7.70903 13.334 9.02344V48.7266C13.3399 50.041 13.8647 51.2999 14.7941 52.2293C15.7236 53.1587 16.9825 53.6835 18.2969 53.6895H39.9531C41.2675 53.6835 42.5264 53.1587 43.4559 52.2293C44.3853 51.2999 44.9101 50.041 44.916 48.7266V9.02344C44.9101 7.70903 44.3853 6.45014 43.4559 5.5207C42.5264 4.59126 41.2675 4.06648 39.9531 4.06055ZM16.041 13.9863H42.209V43.7637H16.041V13.9863ZM18.2969 6.76758H39.9531C40.5514 6.76758 41.1252 7.00525 41.5483 7.4283C41.9713 7.85136 42.209 8.42515 42.209 9.02344V11.2793H16.041V9.02344C16.041 8.42515 16.2787 7.85136 16.7017 7.4283C17.1248 7.00525 17.6986 6.76758 18.2969 6.76758ZM39.9531 50.9824H18.2969C17.6986 50.9824 17.1248 50.7448 16.7017 50.3217C16.2787 49.8986 16.041 49.3249 16.041 48.7266V46.4707H42.209V48.7266C42.209 49.3249 41.9713 49.8986 41.5483 50.3217C41.1252 50.7448 40.5514 50.9824 39.9531 50.9824Z" fill="#B9B9B9"/>
</svg>
