<svg width="20" height="22" viewBox="0 0 20 22" fill="none" xmlns="http://www.w3.org/2000/svg">
<path d="M18.1589 8.64508C18.7382 8.64508 19.2084 9.10831 19.2084 9.6814C19.2084 14.3438 15.634 18.1937 11.05 18.7109V20.797C11.05 21.369 10.5798 21.8333 10.0005 21.8333C9.4202 21.8333 8.9511 21.369 8.9511 20.797V18.7109C4.36609 18.1937 0.791687 14.3438 0.791687 9.6814C0.791687 9.10831 1.26184 8.64508 1.84113 8.64508C2.42042 8.64508 2.89057 9.10831 2.89057 9.6814C2.89057 13.5521 6.07983 16.7014 10.0005 16.7014C13.9202 16.7014 17.1095 13.5521 17.1095 9.6814C17.1095 9.10831 17.5796 8.64508 18.1589 8.64508ZM10.1893 0.166626C12.793 0.166626 14.9045 2.25067 14.9045 4.82178V9.83032C14.9045 12.4004 12.793 14.4855 10.1893 14.4855H9.81049C7.20682 14.4855 5.0964 12.4004 5.0964 9.83032V4.82178C5.0964 2.25067 7.20682 0.166626 9.81049 0.166626H10.1893Z" fill="white" fill-opacity="0.6"/>
</svg>
