<svg width="121" height="40" viewBox="0 0 121 40" fill="none" xmlns="http://www.w3.org/2000/svg">
<path d="M11.5275 9.54834C13.6565 9.54834 15.3985 9.93544 16.3662 10.5161L15.0114 14.5806C14.2372 14.1935 12.8823 13.8064 11.5275 13.8064C9.9791 13.8064 8.81781 14.5806 8.81781 15.7419C8.81781 16.7096 9.59201 17.2903 10.9468 18.0645C13.0759 19.4193 15.0114 21.1612 15.0114 23.4838C15.0114 27.9354 11.3339 30.6451 6.30169 30.4516C3.9791 30.4516 1.85007 29.8709 0.688782 29.0967L2.04362 25.0322C3.01136 25.6129 4.94685 26.387 6.68878 26.1935C8.23717 26.1935 9.20491 25.4193 9.20491 24.258C9.20491 23.2903 8.62427 22.5161 6.88233 21.5483C4.7533 20.387 3.20491 18.6451 3.20491 16.3225" fill="white"/>
<path d="M16.1727 29.6774L21.2049 6.64513L27.3985 1.03223L25.2694 12.4516C26.8178 10.7096 28.7533 9.54835 31.2694 9.54835C34.1727 9.54835 35.9146 11.4838 35.9146 14.7742C35.9146 15.7419 35.7211 17.0967 35.5275 18.258L33.3985 29.6774H27.7856L29.9146 18.4516C30.1082 17.6774 30.1082 16.9032 30.1082 16.129C30.1082 14.9677 29.5275 14 28.3662 14C26.6243 14 24.6888 16.129 23.9146 19.8064L21.9791 29.4838H16.1727V29.6774Z" fill="white"/>
<path d="M48.8823 9.54834C54.1081 9.54834 56.6242 13.4193 56.6242 17.4838C56.6242 24.4516 52.1726 30.4516 45.3984 30.4516C40.3662 30.4516 37.6565 26.9677 37.6565 22.5161M43.2694 22.5161C43.2694 24.6451 44.0436 26.1935 45.9791 26.1935C49.0758 26.1935 50.6242 20.7741 50.6242 17.2903C50.6242 15.5483 50.0436 13.8064 47.9146 13.8064C45.0113 14 43.2694 19.2258 43.2694 22.5161Z" fill="white"/>
<path d="M65.3339 10.3224L64.9468 12.2579C66.4952 10.3224 68.6242 9.16113 70.9468 9.16113C75.0113 9.16113 76.7533 12.8386 76.7533 16.516C76.7533 23.4837 72.3017 30.2579 65.721 30.2579C64.5597 30.4515 63.2049 29.6773 62.6242 29.6773H62.4307L60.8823 37.4192H55.2694L59.1404 16.9031M63.2049 25.4192C63.7855 25.9998 64.5597 26.1934 65.5275 26.1934C68.6242 26.1934 70.9468 20.9676 70.9468 17.2902C70.9468 15.7418 70.3662 14.1934 68.6242 14.1934C66.6888 14.1934 64.7533 16.516 64.1726 19.9998L63.2049 25.4192Z" fill="white"/>
<path d="M77.1404 29.6773L81.0113 14.9676L86.8178 10.3225L82.9468 29.6773H77.1404ZM85.0759 1.61279C86.8178 1.61279 87.9791 2.96763 87.9791 4.70957C87.9791 6.8386 86.4307 8.38699 84.6888 8.38699C83.1404 8.38699 81.9791 6.8386 81.9791 5.09666" fill="white"/>
<path d="M100.56 0.64502C101.915 0.64502 103.076 0.838566 103.656 1.22566L102.495 5.67728C101.915 5.48373 101.334 5.29018 100.753 5.29018C98.8178 5.29018 97.6565 7.22566 97.4629 9.16115L97.0758 10.3224H100.947L100.173 14.1934H96.3017L93.2049 29.6773H87.7855L90.8823 14.1934H88.1726L88.9468 10.3224H91.6565L91.85 9.16115" fill="white"/>
<path d="M108.108 10.3223L109.076 19.0319C109.269 20.9674 109.463 21.9352 109.657 23.8707C110.044 21.9352 110.431 21.3545 111.398 19.2255L114.882 10.3223H120.689L113.721 25.0319C111.205 30.0642 108.882 33.7416 106.173 36.2578C104.237 38.1932 101.721 38.9674 100.56 39.3545L99.0114 34.5158C99.9791 34.1287 101.14 33.7416 102.302 32.9674C103.657 31.9997 104.818 30.8384 105.398 29.4836C105.592 29.29 105.592 28.9029 105.592 28.5158L104.237 14.5803L108.108 10.3223Z" fill="white"/>
</svg>
