<svg width="121" height="120" viewBox="0 0 121 120" fill="none" xmlns="http://www.w3.org/2000/svg">
<g clip-path="url(#clip0_355_1294)">
<path d="M2.04362 65.0322C3.01136 65.6129 4.94685 66.387 6.68878 66.1935C8.23717 66.1935 9.20491 65.4193 9.20491 64.258C9.20491 63.2903 8.62427 62.5161 6.88233 61.5483C4.7533 60.387 3.20491 58.6451 3.20491 56.3225C3.20491 52.258 6.68878 49.5483 11.5275 49.5483C13.6565 49.5483 15.3985 49.9354 16.3662 50.5161L15.0114 54.5806C14.2372 54.1935 12.8823 53.8064 11.5275 53.8064C9.9791 53.8064 8.81781 54.5806 8.81781 55.7419C8.81781 56.7096 9.59201 57.2903 10.9468 58.0645C13.0759 59.4193 15.0114 61.1612 15.0114 63.4838C15.0114 67.9354 11.3339 70.6451 6.30169 70.4516C3.9791 70.4516 1.85007 69.8709 0.688782 69.0967L2.04362 65.0322Z" fill="white"/>
<path d="M16.1727 69.6773L21.7856 40.645H27.3985L25.2694 52.2579V52.4515C26.8178 50.7095 28.7533 49.5482 31.2694 49.5482C34.1727 49.5482 35.9146 51.4837 35.9146 54.7741C35.9146 55.7418 35.7211 57.0966 35.5275 58.2579L33.3985 69.6773H27.7856L29.9146 58.4515C30.1082 57.6773 30.1082 56.9031 30.1082 56.1289C30.1082 54.9676 29.5275 53.9999 28.3662 53.9999C26.6243 53.9999 24.6888 56.1289 23.9146 59.8063L21.9791 69.4837H16.1727V69.6773Z" fill="white"/>
<path d="M56.6242 57.4838C56.6242 64.4516 52.1726 70.4516 45.3984 70.4516C40.3662 70.4516 37.6565 66.9677 37.6565 62.5161C37.6565 55.5483 42.1081 49.5483 49.0758 49.5483C54.1081 49.5483 56.6242 53.4193 56.6242 57.4838ZM43.2694 62.5161C43.2694 64.6451 44.0436 66.1935 45.9791 66.1935C49.0758 66.1935 50.6242 60.7741 50.6242 57.2903C50.6242 55.5483 50.0436 53.8064 47.9146 53.8064C45.0113 54 43.2694 59.2258 43.2694 62.5161Z" fill="white"/>
<path d="M55.0759 77.4192L58.9468 57.2902C59.3339 54.9676 59.9146 52.2579 60.1081 50.3224H65.1404L64.7533 52.2579C66.3017 50.3224 68.4307 49.1611 70.7533 49.1611C74.8178 49.1611 76.5597 52.8386 76.5597 56.516C76.5597 63.4837 72.1081 70.2579 65.5275 70.2579C64.5597 70.4515 63.2049 69.6773 62.6243 69.6773H62.4307L60.8823 77.4192H55.0759ZM63.2049 65.4192C63.7855 65.9998 64.5597 66.1934 65.5275 66.1934C68.6243 66.1934 70.9468 60.9676 70.9468 57.2902C70.9468 55.7418 70.3662 54.1934 68.6242 54.1934C66.6888 54.1934 64.7533 56.516 64.1726 59.9998L63.2049 65.4192Z" fill="white"/>
<path d="M77.1404 69.6773L81.0113 50.3225H86.8178L82.9468 69.6773H77.1404ZM84.4952 48.387C82.9468 48.387 81.7855 46.8386 81.7855 45.0967C81.7855 43.1612 83.1404 41.6128 85.0759 41.6128C86.8178 41.6128 87.9791 43.1612 87.9791 44.7096C87.7855 46.8386 86.2372 48.387 84.4952 48.387Z" fill="white"/>
<path d="M87.7855 69.6773L90.8823 54.1934H88.1726L88.9468 50.3224H91.6565L91.85 49.1611C92.2371 46.8386 93.2049 44.3224 95.1404 42.5805C96.6887 41.2257 98.6242 40.645 100.753 40.645C102.108 40.645 103.269 40.8386 103.85 41.0321L102.689 45.4837C102.108 45.2902 101.527 45.0966 100.947 45.0966C99.0113 45.0966 97.85 47.0321 97.6565 48.9676L97.0758 50.3224H100.947L100.173 54.1934H96.3017L93.2049 69.6773H87.7855Z" fill="white"/>
<path d="M108.108 50.3223L109.076 59.2255C109.269 61.161 109.463 61.9352 109.657 63.8707C110.044 61.9352 110.431 61.3545 111.398 59.2255L114.882 50.3223H120.689L113.721 65.0319C111.205 70.0642 108.882 73.7416 106.173 76.2578C104.237 78.1932 101.721 78.9674 100.56 79.3545L99.0114 74.5158C99.9791 74.1287 101.14 73.7416 102.302 72.9674C103.657 71.9997 104.818 70.8384 105.398 69.4836C105.592 69.29 105.592 69.0965 105.592 68.7094L102.108 50.3223H108.108Z" fill="white"/>
<path d="M11.5275 49.5483C13.6565 49.5483 15.3985 49.9354 16.3662 50.5161L15.0114 54.5806C14.2372 54.1935 12.8823 53.8064 11.5275 53.8064C9.9791 53.8064 8.81781 54.5806 8.81781 55.7419C8.81781 56.7096 9.59201 57.2903 10.9468 58.0645C13.0759 59.4193 15.0114 61.1612 15.0114 63.4838C15.0114 67.9354 11.3339 70.6451 6.30169 70.4516C3.9791 70.4516 1.85007 69.8709 0.688782 69.0967L2.04362 65.0322C3.01136 65.6129 4.94685 66.387 6.68878 66.1935C8.23717 66.1935 9.20491 65.4193 9.20491 64.258C9.20491 63.2903 8.62427 62.5161 6.88233 61.5483C4.7533 60.387 3.20491 58.6451 3.20491 56.3225" fill="white"/>
<path d="M16.1727 69.6774L21.2049 46.6451L27.3985 41.0322L25.2694 52.4516C26.8178 50.7096 28.7533 49.5484 31.2694 49.5484C34.1727 49.5484 35.9146 51.4838 35.9146 54.7742C35.9146 55.7419 35.7211 57.0967 35.5275 58.258L33.3985 69.6774H27.7856L29.9146 58.4516C30.1082 57.6774 30.1082 56.9032 30.1082 56.129C30.1082 54.9677 29.5275 54 28.3662 54C26.6243 54 24.6888 56.129 23.9146 59.8064L21.9791 69.4838H16.1727V69.6774Z" fill="white"/>
<path d="M48.8823 49.5483C54.1081 49.5483 56.6242 53.4193 56.6242 57.4838C56.6242 64.4516 52.1726 70.4516 45.3984 70.4516C40.3662 70.4516 37.6565 66.9677 37.6565 62.5161M43.2694 62.5161C43.2694 64.6451 44.0436 66.1935 45.9791 66.1935C49.0758 66.1935 50.6242 60.7741 50.6242 57.2903C50.6242 55.5483 50.0436 53.8064 47.9146 53.8064C45.0113 54 43.2694 59.2258 43.2694 62.5161Z" fill="white"/>
<path d="M65.3339 50.3224L64.9468 52.2579C66.4952 50.3224 68.6242 49.1611 70.9468 49.1611C75.0113 49.1611 76.7533 52.8386 76.7533 56.516C76.7533 63.4837 72.3017 70.2579 65.721 70.2579C64.5597 70.4515 63.2049 69.6773 62.6242 69.6773H62.4307L60.8823 77.4192H55.2694L59.1404 56.9031M63.2049 65.4192C63.7855 65.9998 64.5597 66.1934 65.5275 66.1934C68.6242 66.1934 70.9468 60.9676 70.9468 57.2902C70.9468 55.7418 70.3662 54.1934 68.6242 54.1934C66.6888 54.1934 64.7533 56.516 64.1726 59.9998L63.2049 65.4192Z" fill="white"/>
<path d="M77.1404 69.6773L81.0113 54.9676L86.8178 50.3225L82.9468 69.6773H77.1404ZM85.0759 41.6128C86.8178 41.6128 87.9791 42.9676 87.9791 44.7096C87.9791 46.8386 86.4307 48.387 84.6888 48.387C83.1404 48.387 81.9791 46.8386 81.9791 45.0967" fill="white"/>
<path d="M100.56 40.645C101.915 40.645 103.076 40.8386 103.656 41.2257L102.495 45.6773C101.915 45.4837 101.334 45.2902 100.753 45.2902C98.8178 45.2902 97.6565 47.2257 97.4629 49.1611L97.0758 50.3224H100.947L100.173 54.1934H96.3017L93.2049 69.6773H87.7855L90.8823 54.1934H88.1726L88.9468 50.3224H91.6565L91.85 49.1611" fill="white"/>
<path d="M108.108 50.3223L109.076 59.0319C109.269 60.9674 109.463 61.9352 109.657 63.8707C110.044 61.9352 110.431 61.3545 111.398 59.2255L114.882 50.3223H120.689L113.721 65.0319C111.205 70.0642 108.882 73.7416 106.173 76.2578C104.237 78.1932 101.721 78.9674 100.56 79.3545L99.0114 74.5158C99.9791 74.1287 101.14 73.7416 102.302 72.9674C103.657 71.9997 104.818 70.8384 105.398 69.4836C105.592 69.29 105.592 68.9029 105.592 68.5158L104.237 54.5803L108.108 50.3223Z" fill="white"/>
</g>
<defs>
<clipPath id="clip0_355_1294">
<rect width="120" height="120" fill="white" transform="translate(0.688782)"/>
</clipPath>
</defs>
</svg>
