<svg width="76" height="60" viewBox="0 0 76 60" fill="none" xmlns="http://www.w3.org/2000/svg">
<path d="M48.0449 11.9615C46.6319 10.543 44.3407 10.543 42.9284 11.9615L19.9021 35.079C17.0746 37.9153 12.4936 37.9153 9.66836 35.079C6.84012 32.2419 6.84012 27.6422 9.66836 24.8036L32.2515 2.13194C29.4255 -0.705879 24.843 -0.705879 22.017 2.13194L4.54963 19.6671C-1.10159 25.342 -1.10159 34.5406 4.54963 40.2163C10.2024 45.8912 19.3651 45.8912 25.0178 40.2163L48.0449 17.0988C49.4572 15.6803 49.4572 13.3801 48.0449 11.9615ZM55.7204 4.25673C50.0677 -1.41891 40.905 -1.41891 35.2522 4.25673L12.2258 27.3727C10.8136 28.7904 10.8136 31.0922 12.2258 32.51C13.6388 33.9285 15.9293 33.9285 17.3423 32.51L40.3702 9.39402C43.1962 6.5562 47.7772 6.5562 50.6024 9.39402C52.0169 10.8118 54.3074 10.8118 55.7204 9.39402C57.1334 7.97398 57.1334 5.67527 55.7204 4.25673ZM63.3966 27.3727C61.9836 25.9556 59.6916 25.9556 58.2786 27.3727L35.2522 50.4894C32.4262 53.3264 27.8438 53.3264 25.0178 50.4894C23.6055 49.0716 21.3151 49.0716 19.9021 50.4894C18.4868 51.9086 18.4868 54.2089 19.9021 55.6259C25.5525 61.3008 34.7175 61.3008 40.3702 55.6259L63.3966 32.51C64.8088 31.0922 64.8088 28.7904 63.3966 27.3727ZM71.0728 19.6679C65.4201 13.9937 56.2559 13.9937 50.6047 19.6679L27.5768 42.7853C26.1638 44.2023 26.1638 46.5041 27.5768 47.9218C28.9905 49.3411 31.2818 49.3411 32.694 47.9218L55.7204 24.8051C58.5456 21.9673 63.1288 21.9673 65.9541 24.8051C68.7801 27.6422 68.7801 32.2419 65.9541 35.079L43.3709 57.7514C46.1969 60.5877 50.7772 60.5877 53.6054 57.7514L71.0728 40.2163C76.724 34.5406 76.724 25.342 71.0728 19.6679Z" fill="white"/>
</svg>
