<svg width="22" height="20" viewBox="0 0 22 20" fill="none" xmlns="http://www.w3.org/2000/svg">
<path d="M15.8919 0.25C19.6282 0.25 21.8334 2.39998 21.8334 6.08028H17.2496V6.11784C15.1223 6.11784 13.3978 7.7992 13.3978 9.87325C13.3978 11.9473 15.1223 13.6287 17.2496 13.6287H21.8334V13.9667C21.8334 17.6 19.6282 19.75 15.8919 19.75H6.10817C2.37187 19.75 0.166687 17.6 0.166687 13.9667V6.03334C0.166687 2.39998 2.37187 0.25 6.10817 0.25H15.8919ZM21.0245 7.69511C21.4712 7.69511 21.8334 8.0482 21.8334 8.48375V11.2252C21.8282 11.6586 21.469 12.0088 21.0245 12.0138H17.3363C16.2594 12.028 15.3176 11.3091 15.0734 10.2864C14.951 9.65148 15.1228 8.99636 15.5425 8.49657C15.9623 7.99677 16.5871 7.70341 17.2496 7.69511H21.0245ZM17.7696 8.96257H17.4134C17.1946 8.96006 16.9839 9.04303 16.8283 9.19296C16.6727 9.34289 16.5852 9.54731 16.5852 9.76059C16.5852 10.2081 16.9544 10.5723 17.4134 10.5774H17.7696C18.227 10.5774 18.5978 10.2159 18.5978 9.76998C18.5978 9.32406 18.227 8.96257 17.7696 8.96257ZM11.4141 4.46546H5.29928C4.84564 4.46543 4.47641 4.82123 4.47113 5.26348C4.47113 5.71095 4.84035 6.07514 5.29928 6.08028H11.4141C11.8715 6.08028 12.2422 5.71879 12.2422 5.27287C12.2422 4.82695 11.8715 4.46546 11.4141 4.46546Z" fill="white" fill-opacity="0.6"/>
</svg>
