<svg width="24" height="18" viewBox="0 0 24 18" fill="none" xmlns="http://www.w3.org/2000/svg">
<path d="M16.3333 0.319763C16.6206 0.319763 16.8962 0.4339 17.0993 0.637064C17.3025 0.840229 17.4166 1.11578 17.4166 1.4031C17.4166 2.00969 17.4166 2.31299 17.4569 2.51067C17.7108 3.7564 19.0474 4.45217 20.2135 3.94566C20.3985 3.86529 20.6469 3.69133 21.1439 3.34341L23.0641 1.99893C23.1453 1.94201 23.2405 1.90847 23.3395 1.90197C23.4385 1.89548 23.5373 1.91627 23.6252 1.96209C23.7132 2.00791 23.7869 2.07699 23.8383 2.16181C23.8896 2.24663 23.9168 2.34393 23.9166 2.4431V15.5298C23.9168 15.6289 23.8896 15.7262 23.8383 15.811C23.7869 15.8959 23.7132 15.965 23.6252 16.0108C23.5373 16.0566 23.4385 16.0774 23.3395 16.0709C23.2405 16.0644 23.1453 16.0309 23.0641 15.9739L21.1439 14.6295C20.6469 14.2815 20.3985 14.1076 20.2135 14.0272C19.0474 13.5207 17.7108 14.2165 17.4569 15.4622C17.4166 15.6599 17.4166 15.9632 17.4166 16.5698C17.4166 16.8571 17.3025 17.1326 17.0993 17.3358C16.8962 17.539 16.6206 17.6531 16.3333 17.6531H1.16665C0.879328 17.6531 0.603778 17.539 0.400614 17.3358C0.19745 17.1326 0.083313 16.8571 0.083313 16.5698V1.4031C0.083313 1.11578 0.19745 0.840229 0.400614 0.637064C0.603778 0.4339 0.879328 0.319763 1.16665 0.319763H16.3333ZM7.01665 5.55118C6.91675 5.55116 6.81991 5.58565 6.74253 5.64883C6.66514 5.712 6.61196 5.79997 6.59198 5.89785L6.58331 5.98343V11.9873C6.5833 12.0574 6.60034 12.1266 6.63295 12.1887C6.66556 12.2508 6.71278 12.3041 6.77054 12.344C6.8283 12.3838 6.89487 12.4091 6.96454 12.4175C7.0342 12.4259 7.10488 12.4173 7.17048 12.3924L7.24956 12.3534L11.9675 9.35043C12.0225 9.31521 12.0689 9.268 12.1031 9.21232C12.1373 9.15665 12.1585 9.09396 12.1651 9.02894C12.1717 8.96392 12.1634 8.89825 12.141 8.83686C12.1186 8.77547 12.0826 8.71994 12.0357 8.67443L11.9675 8.62026L7.24956 5.61726C7.17967 5.57393 7.09888 5.55031 7.01665 5.55118Z" fill="white"/>
</svg>
