<svg width="158" height="40" viewBox="0 0 158 40" fill="none" xmlns="http://www.w3.org/2000/svg">
<path d="M51.2674 15.6877C51.2674 12.8344 48.5428 9.84192 43.8071 9.84192C38.4963 9.84192 32.6654 13.7706 31.7726 21.6119C30.8602 29.5299 35.7433 33.0484 40.6653 33.0484C45.5874 33.0484 48.1647 31.1135 50.8006 28.533C48.5339 25.6619 45.6069 26.9887 45.046 27.2811C44.1175 27.8009 43.0661 28.058 42.0037 28.0248C40.1044 28.0248 38.1661 27.1652 38.1661 23.5878C50.3355 22.3752 51.2674 18.5232 51.2674 15.6877ZM45.236 16.1567C45.1579 17.0359 44.81 18.541 38.6472 19.3845C39.9429 14.73 42.4279 14.3805 43.5692 14.3805C43.8005 14.3699 44.0314 14.4094 44.2462 14.4964C44.4609 14.5834 44.6545 14.7158 44.8138 14.8847C44.9731 15.0535 45.0944 15.2548 45.1694 15.4749C45.2443 15.695 45.2713 15.9288 45.2484 16.1603L45.236 16.1567ZM24.6247 16.92L21.7953 25.8937L19.7984 10.3127C15.3432 10.3127 12.9469 13.5192 11.6973 16.9004L8.24673 25.9133L7.76216 16.9966C7.49946 12.8522 3.73291 10.3306 0.688782 10.3306L4.37013 32.8719C9.03838 32.854 11.5589 29.6654 12.8777 26.2843L15.7958 18.6213C15.8224 18.9333 17.8122 32.8737 17.8122 32.8737C22.5018 32.8737 25.0223 29.883 26.373 26.6177L32.9405 10.3323C28.3167 10.3323 25.8796 13.5192 24.6211 16.92H24.6247ZM68.4778 9.78663C65.5899 9.78663 63.3836 11.3702 61.5198 13.6957V13.6779L63.1847 0.129883C59.3472 0.129883 56.2268 3.49325 55.6268 8.49728L52.7407 32.6971C54.9505 32.6971 57.2953 32.0515 58.5556 30.4091C59.6809 31.875 61.3654 33.0484 63.8663 33.0484C70.338 33.0484 74.7773 25.4639 74.7773 18.3466C74.7382 11.8553 71.6178 9.80447 68.4973 9.80447L68.4778 9.78663ZM67.8743 21.4193C67.1998 25.3872 65.0059 28.0854 62.8954 28.0854C60.785 28.0854 59.8531 27.1278 59.8531 27.1278C60.2613 23.6503 60.5134 21.5174 61.2873 19.6788C62.0612 17.8402 63.9036 14.9084 65.8224 14.9084C67.7039 14.9084 68.5559 17.43 67.8761 21.4175L67.8743 21.4193ZM90.9174 10.3145H86.4017L86.4195 10.0791C86.7301 7.10807 87.4277 5.54408 89.7281 5.28907C91.299 5.13213 91.9966 4.3118 92.1705 3.413L92.7332 0.265417C83.6807 0.206567 80.8158 4.15308 80.0863 10.1772L80.0686 10.3145H79.9709C78.4977 10.3145 76.8718 11.9962 76.5984 14.1273L76.5008 14.9084H79.5254L76.9872 36.0587L76.2097 39.8519C76.3073 39.8519 76.4227 39.8697 76.5186 39.8697C80.7608 39.7127 83.4765 36.3316 84.0765 31.4238L86.0574 14.9048H87.4774C88.8725 14.9048 90.502 13.496 90.786 11.1509L90.9174 10.3145ZM114.404 9.92217C109.191 9.92217 104.269 13.792 102.76 19.8732C101.251 25.9543 103.538 33.1465 111.209 33.1465C118.881 33.1465 123.274 25.6565 123.274 19.422C123.281 13.2249 119.117 9.92038 114.406 9.92038L114.404 9.92217ZM116.516 21.2214C116.247 23.9784 115.043 28.1621 111.749 28.1621C108.454 28.1621 108.9 23.2758 109.219 20.9485C109.569 18.4661 110.945 14.928 113.909 14.928C116.575 14.928 116.825 18.1148 116.518 21.2232L116.516 21.2214ZM149.034 16.9004L146.205 25.8741C146.129 25.1697 144.21 10.2931 144.21 10.2931C139.755 10.2931 137.369 13.4995 136.12 16.8807L132.669 25.8937C132.651 25.2481 132.184 16.977 132.184 16.977C131.904 12.8326 128.141 10.3109 125.084 10.3109L128.746 32.8523C133.414 32.8344 135.935 29.6458 137.254 26.2646L140.161 18.6016C140.179 18.9137 142.178 32.8541 142.178 32.8541C146.867 32.8541 149.377 29.8634 150.738 26.5981L157.311 10.3127C152.7 10.3127 150.257 13.4995 149.017 16.9004H149.034ZM95.1809 0.261852L91.3824 31.167L90.6049 34.9798C90.7008 34.9798 90.818 34.9976 90.9138 34.9976C94.9999 34.9388 97.9073 31.3239 98.4522 26.7675L100.641 9.03585C101.305 3.61987 98.1079 0.258284 95.1809 0.258284V0.261852Z" fill="white"/>
</svg>
