<svg width="86" height="34" viewBox="0 0 86 34" fill="none" xmlns="http://www.w3.org/2000/svg">
<path d="M48.9417 1.09246C47.2574 1.97467 46.6301 3.46516 46.6301 7.58218C46.6301 7.58218 47.4829 6.75725 48.7478 6.29888C49.6701 5.96469 50.4576 5.45618 50.9133 5.12249C52.3365 4.08008 52.5565 2.73701 52.5567 0.477041C52.5567 0.477041 50.2358 0.414619 48.9417 1.09246Z" fill="white"/>
<path d="M38.9525 2.05694C37.5787 3.26803 37.1776 5.19746 37.1776 5.19746L32.63 22.8167L28.8476 8.39675C28.4793 6.86376 27.8149 4.96836 26.7645 3.68688C25.4262 2.05429 22.7054 1.95185 22.4157 1.95185C22.1258 1.95185 19.4052 2.05429 18.0669 3.68688C17.0164 4.96836 16.352 6.86376 15.9838 8.39675L12.2013 22.8165L7.65359 5.19729C7.65359 5.19729 7.25233 3.26786 5.87872 2.05678C3.65112 0.0931441 0.311218 0.513328 0.311218 0.513328L9.01973 33.441C9.01973 33.441 11.893 33.6477 13.3303 32.9151C15.2184 31.9525 16.1172 31.2099 17.2601 26.73C18.2789 22.7357 21.1269 11.0034 21.3929 10.1683C21.5244 9.75542 21.6909 8.76895 22.4155 8.76895C23.1565 8.76895 23.309 9.75476 23.4382 10.1683C23.6995 11.0049 26.5521 22.7357 27.571 26.73C28.7137 31.2101 29.6125 31.9525 31.5007 32.9151C32.9383 33.6479 35.8113 33.441 35.8113 33.441L44.5199 0.513328C44.5199 0.513328 41.18 0.0931426 38.9525 2.05694Z" fill="white"/>
<path d="M52.5542 5.88965C52.5542 5.88965 52.0095 6.73185 50.7665 7.42679C49.9683 7.87304 49.2025 8.17535 48.3806 8.56964C47.0033 9.23038 46.6302 9.96649 46.6302 11.0894V33.4413C46.6302 33.4413 48.8276 33.719 50.2652 32.9862C52.1154 32.0429 52.5406 31.1338 52.5568 27.0387L52.5542 5.88965Z" fill="white"/>
<path d="M74.2615 17.0571L85.3112 0.622599C85.3112 0.622599 80.6477 -0.171288 78.3384 1.93064C76.8608 3.27553 75.2087 5.69421 75.2087 5.69421L71.1431 11.5549C70.946 11.8595 70.6874 12.1912 70.2753 12.1912C69.8633 12.1912 69.6046 11.8595 69.4076 11.5549L65.3422 5.69421C65.3422 5.69421 63.6898 3.27569 62.2123 1.93064C59.9032 -0.171288 55.2395 0.622599 55.2395 0.622599L66.2891 17.0571L55.2685 33.4411C55.2685 33.4411 60.1251 34.054 62.4343 31.9521C63.9118 30.6072 65.342 28.4203 65.342 28.4203L69.4076 22.5596C69.6046 22.2549 69.8633 21.9232 70.2753 21.9232C70.6874 21.9232 70.946 22.2549 71.1431 22.5596L75.2087 28.4203C75.2087 28.4203 76.7227 30.6072 78.2003 31.9521C80.5094 34.054 85.2817 33.4411 85.2817 33.4411L74.2615 17.0571Z" fill="white"/>
</svg>
