<svg width="61" height="60" viewBox="0 0 61 60" fill="none" xmlns="http://www.w3.org/2000/svg">
<path d="M18.687 18.5171H15.3736L24.4068 44.0519L29.4639 29.6005L25.5431 18.5171H22.0472V16.084H37.5282V18.5171H33.903L42.9361 44.0519L46.1831 34.7727C50.4426 22.8843 42.692 19.1811 42.692 16.5279C42.692 13.8747 44.8428 11.724 47.4959 11.724C47.6394 11.724 47.7788 11.7318 47.9154 11.7445C43.42 7.50082 37.3584 4.89844 30.6885 4.89844C21.9732 4.89844 14.2963 9.34087 9.79596 16.084H18.6867V18.5171H18.687Z" fill="white"/>
<path d="M5.58716 30C5.58716 39.6102 10.9887 47.9576 18.9205 52.1757L7.59259 20.1543C6.30219 23.1774 5.58716 26.5051 5.58716 30Z" fill="white"/>
<path d="M52.5345 17.6309C52.8936 19.745 52.7849 22.1211 52.2339 24.5065H52.3337L51.9542 25.5911C51.7293 26.3742 51.4461 27.1753 51.1244 27.9624L42.4872 52.1596C50.4024 47.9364 55.7901 39.598 55.7901 30C55.7901 25.5025 54.6062 21.2819 52.5345 17.6309Z" fill="white"/>
<path d="M22.9471 53.8829C25.3857 54.6728 27.9869 55.1013 30.6888 55.1013C33.2658 55.1013 35.7519 54.7124 38.0922 53.9909L30.7497 33.2354L22.9471 53.8829Z" fill="white"/>
<path d="M51.9019 8.78675C46.2357 3.12053 38.7019 0 30.6886 0C22.6754 0 15.1418 3.12053 9.47553 8.78675C3.80931 14.453 0.688782 21.9866 0.688782 30C0.688782 38.0133 3.80931 45.5469 9.47553 51.2131C15.1418 56.8793 22.6755 59.9999 30.6888 59.9999C38.7021 59.9999 46.2357 56.8793 51.902 51.2131C57.5683 45.5469 60.6888 38.0131 60.6888 30C60.6886 21.9866 57.5681 14.453 51.9019 8.78675ZM30.6886 57.8836C15.3136 57.8836 2.80505 45.3751 2.80505 30C2.80505 14.6249 15.3136 2.11627 30.6886 2.11627C46.0637 2.11627 58.5722 14.6249 58.5722 30C58.5722 45.3751 46.0639 57.8836 30.6886 57.8836Z" fill="white"/>
</svg>
